<mxfile host="app.diagrams.net" agent="Mozilla/5.0 (Macintosh; Intel Mac OS X 10_15_7) AppleWebKit/537.36 (KHTML, like Gecko) Chrome/129.0.0.0 Safari/537.36" version="24.7.17">
  <diagram id="C5RBs43oDa-KdzZeNtuy" name="Page-1">
    <mxGraphModel dx="2036" dy="1909" grid="1" gridSize="10" guides="1" tooltips="1" connect="1" arrows="1" fold="1" page="1" pageScale="1" pageWidth="827" pageHeight="1169" math="0" shadow="0">
      <root>
        <mxCell id="WIyWlLk6GJQsqaUBKTNV-0" />
        <mxCell id="WIyWlLk6GJQsqaUBKTNV-1" parent="WIyWlLk6GJQsqaUBKTNV-0" />
        <mxCell id="WIyWlLk6GJQsqaUBKTNV-2" value="" style="rounded=0;html=1;jettySize=auto;orthogonalLoop=1;fontSize=11;endArrow=block;endFill=0;endSize=8;strokeWidth=1;shadow=0;labelBackgroundColor=none;edgeStyle=orthogonalEdgeStyle;exitX=1;exitY=0.5;exitDx=0;exitDy=0;" parent="WIyWlLk6GJQsqaUBKTNV-1" source="1dCZvmulT4gHqQX5CbZe-7" target="WIyWlLk6GJQsqaUBKTNV-6" edge="1">
          <mxGeometry relative="1" as="geometry">
            <mxPoint x="170" y="170" as="sourcePoint" />
          </mxGeometry>
        </mxCell>
        <mxCell id="WSYrsb_v--ZGh39bEBOG-20" style="edgeStyle=orthogonalEdgeStyle;rounded=0;orthogonalLoop=1;jettySize=auto;html=1;entryX=0.196;entryY=-0.015;entryDx=0;entryDy=0;entryPerimeter=0;exitX=1;exitY=0.5;exitDx=0;exitDy=0;" parent="WIyWlLk6GJQsqaUBKTNV-1" source="1dCZvmulT4gHqQX5CbZe-7" target="WSYrsb_v--ZGh39bEBOG-0" edge="1">
          <mxGeometry relative="1" as="geometry">
            <mxPoint x="50" y="-40" as="targetPoint" />
            <mxPoint x="80" y="170" as="sourcePoint" />
          </mxGeometry>
        </mxCell>
        <mxCell id="WIyWlLk6GJQsqaUBKTNV-5" value="" style="edgeStyle=orthogonalEdgeStyle;rounded=0;html=1;jettySize=auto;orthogonalLoop=1;fontSize=11;endArrow=block;endFill=0;endSize=8;strokeWidth=1;shadow=0;labelBackgroundColor=none;" parent="WIyWlLk6GJQsqaUBKTNV-1" source="WIyWlLk6GJQsqaUBKTNV-6" target="WIyWlLk6GJQsqaUBKTNV-7" edge="1">
          <mxGeometry y="10" relative="1" as="geometry">
            <mxPoint as="offset" />
          </mxGeometry>
        </mxCell>
        <mxCell id="WIyWlLk6GJQsqaUBKTNV-6" value="press" style="rhombus;whiteSpace=wrap;html=1;shadow=0;fontFamily=Helvetica;fontSize=12;align=center;strokeWidth=1;spacing=6;spacingTop=-4;" parent="WIyWlLk6GJQsqaUBKTNV-1" vertex="1">
          <mxGeometry x="160" y="240" width="100" height="80" as="geometry" />
        </mxCell>
        <mxCell id="WSYrsb_v--ZGh39bEBOG-1" value="" style="edgeStyle=orthogonalEdgeStyle;rounded=0;orthogonalLoop=1;jettySize=auto;html=1;" parent="WIyWlLk6GJQsqaUBKTNV-1" source="WIyWlLk6GJQsqaUBKTNV-7" target="WSYrsb_v--ZGh39bEBOG-0" edge="1">
          <mxGeometry relative="1" as="geometry">
            <Array as="points">
              <mxPoint x="310" y="230" />
              <mxPoint x="250" y="230" />
              <mxPoint x="250" y="60" />
            </Array>
          </mxGeometry>
        </mxCell>
        <mxCell id="WIyWlLk6GJQsqaUBKTNV-7" value="qc" style="rounded=1;whiteSpace=wrap;html=1;fontSize=12;glass=0;strokeWidth=1;shadow=0;" parent="WIyWlLk6GJQsqaUBKTNV-1" vertex="1">
          <mxGeometry x="290" y="260" width="30" height="40" as="geometry" />
        </mxCell>
        <mxCell id="WSYrsb_v--ZGh39bEBOG-7" value="" style="edgeStyle=orthogonalEdgeStyle;rounded=0;orthogonalLoop=1;jettySize=auto;html=1;" parent="WIyWlLk6GJQsqaUBKTNV-1" source="WSYrsb_v--ZGh39bEBOG-0" target="WSYrsb_v--ZGh39bEBOG-6" edge="1">
          <mxGeometry relative="1" as="geometry" />
        </mxCell>
        <mxCell id="WSYrsb_v--ZGh39bEBOG-0" value="assembly" style="rounded=1;whiteSpace=wrap;html=1;fontSize=12;glass=0;strokeWidth=1;shadow=0;" parent="WIyWlLk6GJQsqaUBKTNV-1" vertex="1">
          <mxGeometry x="267.5" y="40" width="75" height="40" as="geometry" />
        </mxCell>
        <mxCell id="WSYrsb_v--ZGh39bEBOG-5" style="edgeStyle=orthogonalEdgeStyle;rounded=0;orthogonalLoop=1;jettySize=auto;html=1;entryX=0.5;entryY=1;entryDx=0;entryDy=0;" parent="WIyWlLk6GJQsqaUBKTNV-1" source="WSYrsb_v--ZGh39bEBOG-2" target="WIyWlLk6GJQsqaUBKTNV-6" edge="1">
          <mxGeometry relative="1" as="geometry" />
        </mxCell>
        <mxCell id="WSYrsb_v--ZGh39bEBOG-2" value="sales" style="rounded=0;whiteSpace=wrap;html=1;" parent="WIyWlLk6GJQsqaUBKTNV-1" vertex="1">
          <mxGeometry x="150" y="500" width="120" height="60" as="geometry" />
        </mxCell>
        <mxCell id="WSYrsb_v--ZGh39bEBOG-6" value="fulfillment" style="rounded=1;whiteSpace=wrap;html=1;fontSize=12;glass=0;strokeWidth=1;shadow=0;" parent="WIyWlLk6GJQsqaUBKTNV-1" vertex="1">
          <mxGeometry x="360" y="40" width="70" height="40" as="geometry" />
        </mxCell>
        <mxCell id="1dCZvmulT4gHqQX5CbZe-2" value="" style="edgeStyle=orthogonalEdgeStyle;rounded=0;orthogonalLoop=1;jettySize=auto;html=1;" edge="1" parent="WIyWlLk6GJQsqaUBKTNV-1" source="1dCZvmulT4gHqQX5CbZe-0" target="1dCZvmulT4gHqQX5CbZe-1">
          <mxGeometry relative="1" as="geometry" />
        </mxCell>
        <mxCell id="1dCZvmulT4gHqQX5CbZe-0" value="receiving" style="rounded=0;whiteSpace=wrap;html=1;" vertex="1" parent="WIyWlLk6GJQsqaUBKTNV-1">
          <mxGeometry x="-483" y="45" width="70" height="30" as="geometry" />
        </mxCell>
        <mxCell id="1dCZvmulT4gHqQX5CbZe-8" style="edgeStyle=orthogonalEdgeStyle;rounded=0;orthogonalLoop=1;jettySize=auto;html=1;entryX=0;entryY=0.5;entryDx=0;entryDy=0;" edge="1" parent="WIyWlLk6GJQsqaUBKTNV-1" source="1dCZvmulT4gHqQX5CbZe-1" target="1dCZvmulT4gHqQX5CbZe-7">
          <mxGeometry relative="1" as="geometry" />
        </mxCell>
        <mxCell id="1dCZvmulT4gHqQX5CbZe-13" value="" style="group" vertex="1" connectable="0" parent="WIyWlLk6GJQsqaUBKTNV-1">
          <mxGeometry x="-120" y="10" width="210" height="100" as="geometry" />
        </mxCell>
        <mxCell id="WSYrsb_v--ZGh39bEBOG-12" value="pvc" style="rounded=1;whiteSpace=wrap;html=1;fontSize=12;glass=0;strokeWidth=1;shadow=0;" parent="1dCZvmulT4gHqQX5CbZe-13" vertex="1">
          <mxGeometry x="140" y="30" width="40" height="20" as="geometry" />
        </mxCell>
        <mxCell id="WSYrsb_v--ZGh39bEBOG-14" value="labels" style="rounded=1;whiteSpace=wrap;html=1;fontSize=12;glass=0;strokeWidth=1;shadow=0;" parent="1dCZvmulT4gHqQX5CbZe-13" vertex="1">
          <mxGeometry x="95" y="30" width="40" height="20" as="geometry" />
        </mxCell>
        <mxCell id="WSYrsb_v--ZGh39bEBOG-23" value="polybags" style="rounded=1;whiteSpace=wrap;html=1;" parent="1dCZvmulT4gHqQX5CbZe-13" vertex="1">
          <mxGeometry x="35" y="60" width="60" height="20" as="geometry" />
        </mxCell>
        <mxCell id="WSYrsb_v--ZGh39bEBOG-26" value="antistatics" style="rounded=1;whiteSpace=wrap;html=1;fontSize=12;glass=0;strokeWidth=1;shadow=0;" parent="1dCZvmulT4gHqQX5CbZe-13" vertex="1">
          <mxGeometry x="100" y="60" width="70" height="20" as="geometry" />
        </mxCell>
        <mxCell id="WSYrsb_v--ZGh39bEBOG-31" value="print" style="rounded=1;whiteSpace=wrap;html=1;fontSize=12;glass=0;strokeWidth=1;shadow=0;" parent="1dCZvmulT4gHqQX5CbZe-13" vertex="1">
          <mxGeometry x="20" y="30" width="70" height="20" as="geometry" />
        </mxCell>
        <mxCell id="1dCZvmulT4gHqQX5CbZe-7" value="Materials" style="rounded=0;whiteSpace=wrap;html=1;fillColor=none;verticalAlign=top;" vertex="1" parent="1dCZvmulT4gHqQX5CbZe-13">
          <mxGeometry width="210" height="100" as="geometry" />
        </mxCell>
        <mxCell id="1dCZvmulT4gHqQX5CbZe-14" value="" style="group" vertex="1" connectable="0" parent="WIyWlLk6GJQsqaUBKTNV-1">
          <mxGeometry x="-340" y="25" width="143" height="70" as="geometry" />
        </mxCell>
        <mxCell id="1dCZvmulT4gHqQX5CbZe-1" value="check-in" style="rounded=0;whiteSpace=wrap;html=1;verticalAlign=top;" vertex="1" parent="1dCZvmulT4gHqQX5CbZe-14">
          <mxGeometry width="143" height="70" as="geometry" />
        </mxCell>
        <mxCell id="1dCZvmulT4gHqQX5CbZe-3" value="slack" style="rounded=0;whiteSpace=wrap;html=1;" vertex="1" parent="1dCZvmulT4gHqQX5CbZe-14">
          <mxGeometry x="10" y="30" width="60" height="30" as="geometry" />
        </mxCell>
        <mxCell id="1dCZvmulT4gHqQX5CbZe-4" value="monday" style="rounded=0;whiteSpace=wrap;html=1;" vertex="1" parent="1dCZvmulT4gHqQX5CbZe-14">
          <mxGeometry x="73" y="30" width="60" height="30" as="geometry" />
        </mxCell>
      </root>
    </mxGraphModel>
  </diagram>
</mxfile>
